<svg xmlns="http://www.w3.org/2000/svg" stroke="#000" stroke-linecap="square" stroke-miterlimit="10" color-interpolation="auto" font-family="'Dialog'" font-size="12"><path stroke="none" d="M280.828 253.547q0 6.328-6.61 11.812-5.624 4.641-12.515 6.329-3.094.421-9.14 1.546-2.391 1.125-7.454 2.813-10.968 2.812-33.047 2.812-1.406 0-4.015-.703-2.594-.703-4-.703-3.375 0-3.797 2.531v5.063q0 5.203-3.937 9.703-5.766 6.75-6.47 8.016-.421 1.687-1.546 5.203-2.39 6.89-6.89 11.25-4.641 2.39-11.11 6.75-1.547 1.687-3.234 7.734-1.266 4.922-6.61 7.875-14.625 8.016-40.078 8.016 1.547 0-6.89-1.547-10.829-1.969-16.735-4.219-8.86-3.937-17.578-7.734-11.813-5.063-17.719-5.063h-8.86q-6.75 0-10.687.422-2.812.281-10.828 2.11-6.75 1.546-10.969 1.546-3.515 0-6.187-3.796-2.39-3.375-2.39-7.032 0-1.828 1.124-3.797 27.563-5.343 35.297-5.343 23.766 0 38.25 7.171 16.172 8.016 26.016 10.407t27.281 2.39q20.672 0 21.516-8.859-6.75-.844-19.547-4.781-1.406-3.375-1.406-5.344 0-5.906 5.343-5.906 3.797 0 11.172 1.406 7.39 1.406 11.188 1.406 4.5 0 9.422-7.312-6.047-.563-12.094-1.266-8.578-1.547-8.578-6.047 0-7.734 6.047-7.734 1.406 0 4.14.844 2.75.843 4.156.843h12.094q1.547 0 4.078-3.375 1.266-1.687 4.5-11.671-5.625-1.829-11.39-3.516-6.328-2.25-8.72-7.453 3.376-3.656 4.782-3.656-1.969 0 8.578 2.53 4.64 1.126 15.469 1.126 31.078 0 48.656-4.36 6.047-1.546 12.235-2.953 7.734-2.812 7.734-8.015 0-2.391-4.781-3.657-3.375-.703-6.75-1.468-3.375-.782-3.656-.782l-42.47.141q-8.437 0-22.218-2.11-16.594-2.39-22.219-2.812h-24.328q-13.219 0-18.844-2.672-4.218-1.969-4.218-6.61 0-1.968 1.75-4.218 1.765-2.25 3.734-2.25 5.203 0 15.61.922 10.406.906 15.609.906 3.937 0 6.187-.281-.281-1.687-1.406-5.062-.984-1.97-5.422-3.797-4.422-1.828-6.953-1.828H98.86q-10.547 9.421-29.672 29.953 4.078 1.265 8.156 2.672 6.047 2.109 6.187 4.5-4.36 2.671-4.922 2.671H20.953q-4.64 0-4.64-8.297 0-7.03 5.062-7.03 1.547 0 4.422.64 2.89.625 3.875.766 6.75.843 22.5.843 6.187-4.922 19.547-19.687 11.953-13.078 20.25-18.563 2.953-1.969 7.172-1.969 1.687 0 5.062.641 3.375.625 5.063.625h38.812q.281 0 3.938 1.266 6.89 2.39 9.984 4.219 5.344 3.093 7.172 7.734.281.703.703 6.328.281 4.219 2.25 5.344 6.188 3.656 65.11 5.203 11.671-.281 30.234 1.547 9.281 2.672 11.312 5.765 2.047 3.094 2.047 12.938"/></svg>