<svg xmlns="http://www.w3.org/2000/svg" width="802" height="333" viewBox="0 0 2048 850"><path fill="#0038A9" d="M1214 15h7l2 1 1 3v9l-9 35-11 40-24 72-16 50-10 30 4-2 18-3 29-5 26-4 17-1 9 2 6 4 6 9 1 4v12l-4 16-10 16-6 7-10 8v1l41-13 33-11 87-28 50-16 23-8h2v3l-13 4-48 16-29 9-41 14-49 16-36 12-40 13-27 9-64 20-10 3h-3l-3 10-9 25-8 21-17 49-15 40-11 29-13 36-13 30-9 20-6 10-3 2-8-1-3-5-4-20-1-22v-13l-2-23-2-27v-10l-4-48v-14l-1-23 2-25-6 2 1-3 5-2 4-25 5-17 12-27 9-14 4-5 11-9 5-5-19 7-24 7-22 4-16 2-36 2-28 3-20 4-27 8-25 9-24 10-14 5-17 5h-15l-8-3-6-7-3-6v-2l-5 5-11 13-4 5-8 7-11 8-10 5-8 3-7-1-6-1h-7l-2-4 1-5 8-3 6-5 10-3 14-9 11-11 9-11 8-10 11-12 7-3 7 2 5 7 1 21 10 1 21-5 33-11 25-9 20-6 29-6 23-3 44-3 19-2 23-5 63-21 16-4 2-5 11-15 13-19 9-11 9-12 8-10 12-20 12-24 14-32 22-52 13-31 8-17zm-21 69 1 3zm-1 3 1 3zm-1 3-9 25-13 31-8 20-14 30-9 14-5 9-11 14-13 18-8 12 1 2 31-6 9-3 12-37 15-48 9-29 9-31 5-17zm29 164-30 4-19 3 4 2 31 1 38 2h9l-1-5-5-5-7-2zm-70 18-4 2-18 55v1h9l37-6 25-6 16-6 11-6 10-8 6-7 8-13v-2l-4-1-49-3zm-18 2-29 4-12 3-6 9-7 15-4 11 1 9 5 5 10 2h26l3-5 14-43 3-10zm-70 18-10 6-10 8-10 9-9 9-7 11-11 24-5 15-4 23 8-1 41-13 34-11 26-8 3-4 3-10-1-1-27-1-10-3-9-6h-2l-2-5-3-7v-15l6-17 1-3zm101 50-26 4-15 2-4 8v3l12-3 40-13v-1zm-60 24-21 7-17 5-28 9-33 10-7 3-2 2-1 13v38l2 29 4 32 3 20 1 6 3 40 1 29 1 12 3-3 8-16 14-32 21-55 19-54 19-53 13-42z"/><path fill="#0038A9" d="m500 217 9 1 5 5v7l-7 13-7 9-12 14-14 19-12 13-8 10-18 22-12 14h-6l-2-2v-6l10-12 13-17 9-11 14-19 12-16 13-15v-1l-10 8-13 11-11 10-8 7-14 12-10 9-13 12-10 9-8 8-8 7-16 15-12 11-11 9-11 11-8 7-17 16-13 13-8 7-12 12-8 7-32 30-53 53-8 7-14 12-10 9-14 14-10 15-6 13-1 6 2 7 2 4 12 6 5 1h21l56-6 39-6 31-6 40-10 41-11 63-16 26-7 28-8 54-15 66-19 70-21 174-55 26-8 43-13 26-8 22-7 10-3 4 1-6 3-11 3-28 9-57 18-67 22-103 33-65 20-55 16-46 13-99 27-12 3-24 7-39 12-46 14-38 10-29 6-33 5-48 5-12 1h-21l-10-3-8-4-7-7-3-5-1-4v-11l6-16 6-11 8-11 19-19 11-9 13-12 8-7 19-19 7-8 43-43 8-7 16-15 8-8 8-7 15-14 17-17h2l2-4 9-9h2v-2l8-7 27-27 8-7 16-15 13-12 15-15h2l2-4 3-3h2l2-4 14-14 8-7 13-11 17-13zM1846 121l5 1-3 3-29 11-28 11-28 12-4-1-1-4-113 37-36 12-35 11-30 10-20 6-8 3-3-1 5-3 30-10 43-14 165-55 11-4 57-18zM1494 236l3 1-1 3h-2zM1505 233h2l-1 4h-2zM1510 231h2l-1 4h-2zM1479 241h2l-1 4-2-1zM1484 240l3 1-1 2-3-1zM1489 238h2v4h-2zM1499 235h3l-1 3h-2z"/></svg>