<svg xmlns="http://www.w3.org/2000/svg" width="400" height="400" viewBox="0 0 1600 1600"><path fill="#508742" d="M740 605h8l1 1-1 13-1 16 8 17 8 16 8 19 9 25 7 24 4 23 2 21v44l-3 24-4 28-1 44v155l-6 1-74-1-1-1-1-198-5-4-29-15-27-14-38-19-29-13-32-13-40-15-26-8-37-9-23-4-12-2-3-2v-7l4-8 9-6 13-3h17l31 5 36 7 43 8 27 4 14 1h18l20-2 24-5 21-8 16-8 13-8 4-5 2-15-2-36v-31l4-14 5-8 7-7zM842 683h6l12 6 8 7 6 12 1 3v42l-1 17v12l2 12 4 4 24 13 18 7 21 5 5 1 24 1 22-1 28-4 55-11 44-7 15-1 12 3 9 5 4 7 1 8-2 2-32 5-38 9-29 9-32 12-31 13-24 11-17 8-19 10-48 24-5 2-1 101-1 45h-53l-20-1-1-1-1-134-2-16-4-26-1-10v-46l6-37 5-19 9-26 10-23 10-18 3-9v-9l-3-7v-9z"/><path fill="#035694" d="m441 267 5 5 8 10 12 13 9 10 16 15 19 14 13 8 16 9 21 11 21 8 24 7 36 9 17 6 25 12 23 13 19 12 19 13 21 16 11 8 5 4-1-15v-30l4-33 5-23 6-18 10-20 8-11 10-11 14-11 14-8 5-2 4 1-4 6-12 15-9 15-7 15-7 23-5 20-4 27-3 29-1 24v46l2 37 2 35-3-1-8-20-12-23-11-16-9-10-7-8-16-16-11-9-13-10-21-14-17-10-16-8-14-6-13-4-18-3-37-4-50-2-109-1-27-2v-1l26-3 81-6 24-2 20-1h18l-4-4-30-18-14-11-14-12-17-17-9-11-10-12-12-16-11-18-7-13z"/><path fill="#FDD746" d="M413 1150h85l13 2 10 4 10 7 9 9 8 14 4 11 1 6v37l-2 13-5 12-7 9-9 8-14 8-9 3-10 1h-84l-2-1-1-4v-12l1-18 80-1 12-3 6-4 5-6 2-5 1-7v-16l-2-14-5-8-4-4-12-4-18-1h-67l-6 2-3 5-1 18v129l-1 1h-35l-1-3 1-152 5-13 8-11 9-6 10-4z"/><path fill="#FDD747" d="M1071 1150h162l1 1v34l-88 1h-50l1 105 1 10 10 3 122 1 6 2v16l-1 18-1 1h-114l-20-1-12-3-9-5-10-9-7-12-1-4-1-23v-122l4-11z"/><path fill="#FDD746" d="M671 1150h160l1 2-1 32-1 1H693l1 114 3 3 6 2 10 1h94l25 1v25l-1 10-3 1h-63l-54-1-14-1-12-3-13-7-7-8-6-10-1-4-1-14v-129l3-8 7-6z"/><path fill="#035694" d="M1230 338h2l-1 8-6 15-12 22-12 17-10 11-7 8-11 11-22 18-15 10-17 10-27 13-30 11-47 16-32 13-27 13-21 13-17 11-14 11-15 13-7 7-7 8-10 12-7 11-9 14-15 29-6 14-7 20-6 20-5 19-3 1-2-5-1-17 3-32 3-18 6-21 8-21 9-19 14-21 27-36 16-24 14-22 14-26 8-19 10-40 3-4 1 7v33l-3 28-5 28-7 25v4l11-10 15-10 21-13 22-13 29-15 19-9 36-12 26-7 16-7 15-8 17-12 13-10 13-12 8-7 9-9 9-11 10-13 10-15z"/><path fill="#FDD747" d="M848 1150h188l1 1v23l-1 11-8 1h-67v156h-36l-1-1v-125l-1-29-20-1-55-1z"/><path fill="#538845" d="M614 635h7l12 5 7 7 9 17 7 24 5 20 4 10 14 7 7 5-2 4-17 7-17 5-18 3-25 2h-35l-16-2-16-5-12-8-12-11-16-17-7-7-7-8-11-9-10-7-2-2 1-4 14-5 10 1 13 4 13 7 14 11 16 13 12 11 11 9 11 8 4 2h3l-9-16-11-19-12-22-14-24-5-10 1-1h15l9 2 11 7 8 8 14 19 7 11 11 16 9 12 5 6 4 1-3-16-7-52-4-15z"/><path fill="#035694" d="m563 486 4 1 11 44 12 30 11 23 12 19v1h-9l-43-4-21-1h-79l-41 4-36 6-32 8-30 10-22 9-16 8-7 4h-2l1-5 7-9 7-7 18-12 21-11 21-8 30-9 23-5 29-5 3-1-28-16-14-11-19-19-9-14-5-11 1-2 4 2 10 10 12 10 17 11 17 10 22 10 34 12 38 10 49 10 4 1-7-25-3-20-1-21 2-24 2-11z"/><path fill="#518844" d="m961 709 4 1-1 13-8 49-2 13v6l4-2 9-12 14-21 13-19 9-10 9-8 8-4 3-1h8l7 2-1 5-14 26-11 18-15 27-4 9 8-3 13-11 13-12 10-9 13-10 10-7 14-7 7-2h13l9 4 2 1-1 4-13 10-14 12-12 13-17 17-16 10-13 5-10 2h-37l-20-2-21-3-21-7-9-5-1-4 5-4 15-6 14-51 6-12 7-8 10-6z"/><path fill="#FDD747" d="M583 1150h34l1 1v189l-2 2h-33l-1-2v-188z"/><path fill="#FDD748" d="M1114 1227h89l14 1 2 3 1 8-1 23-1 1-22 1h-82l-5-1-1-16v-19z"/><path fill="#FDD749" d="M741 1227h60l15 1v35l-6 1h-93l-11-1-1-1v-33l2-1z"/><path fill="#548947" d="m493 165 4 1 12 25v2l24 3 10 2-2 4-12 11-7 7-1 2v10l3 18v5l-6-1-14-9-6-3-7 1-22 11h-4v-8l3-15 1-7-3-5-18-18 1-4 25-3 6-1 2-6 8-19z"/><path fill="#4E92AF" d="M1124 646h17l21 3 13 3 1 2-2 1-38 1-17 2-17 5-14 7-7 5-1 2 12 3 22 5 28 8 22 8 23 10 24 12 16 10 11 8 4 3v2l-7-1-27-13-29-13-19-7-31-9-34-7-22-3-35-3-2-1 2-5 7-7 17-12 16-8 16-6 19-4z"/><path fill="#538946" d="m432 432 4 1 5 11 6 16 10 2 20 3 1 5-1 2h-2v2l-14 10-1 2v15l2 13v5l-6-1-11-6-12-6-20 11-5 3h-3v-9l3-15v-8l-9-10-9-7-3-3v-2l12-3 20-3 12-27z"/><path fill="#558A48" d="M965 1349h7l5 3 14 24 11 21v2l3-3 13-25 9-15 4-7 8 1 2 1v66l-1 1h-8l-3-3-1-9v-16l1-6h-2v2h-2l-2 5-10 16-6 9-2 2-4-1-5-5-9-15-8-13-2-1 1 19v13l-5 3h-7l-1-1-1-14v-52z"/><path fill="#B7C5B7" d="m956 606 4 1 5 6 5 8v2l5 2 9 3h15l1 3-7 8-6 5h-2l-1 3v31l-6-2-13-8-2-1h-8l-11 6-6 4-2-1-1-27-7-8-8-7-1-3 2-2 10-1h7l7-3 4-2 2-4 3-7z"/><path fill="#508743" d="m882 350 4 2 8 19 1 1 23 3 6 2-5 5-11 9-3 5v9l3 12-1 5-6-1-14-9h-7l-14 8-7 2 1-10 2-11-1-6-7-8-9-8v-3l13-2 12-2 3-5 8-16z"/><path fill="#558A48" d="m1194 528 4 1 8 20 6 2 19 2 2 1-2 4-6 7-7 5-1 2v13l2 10v4l-9-3-10-6h-8l-10 5-4 3h-5l-1-7 3-12v-6l-9-9-7-6v-4l2-1 22-2 6-13zM1266 1367h61l5 3 3 4 1 6v37l-11-1-1-1-1-35h-11l-1 36-1 1h-8l-4-2-1-35h-18v36l-1 1h-11l-1-1z"/><path fill="#FDD747" d="m1210 1076 4 1 9 16 4 10-1 5-4 3-42 15-17 6h-5l-7-14 1-6 9-7 16-9 18-11z"/><path fill="#578C4B" d="M157 1367h57l8 3 3 5 1 8v34h-9l-3-3v-34h-13l-1 36-1 1h-7l-4-1-1-27v-9h-17l-1 8-1 28-1 1h-7l-4-1-1-2 1-46z"/><path fill="#FDD746" d="m809 1076 3 1 10 21 2 6-1 5-16 6-20 7-26 9h-6l-8-14 1-5 10-7 20-11 13-8 14-8z"/><path fill="#588C4C" d="M32 1351h38l6 3 6 7 2 8v13l-3 9-5 7-5 2H36l-1-1v-8l1-2 7-1 24-1 4-4v-13l-2-4-2-1H32l-1 52H21l-1-1v-54l3-6 6-4z"/><path fill="#598C4C" d="M704 1345h7l5 2v56h29l-1-22-24-2 1-12h25l7 3 4 7 1 7v16l-2 10-5 5-6 2h-22l-11-1-5-4-3-7-1-11v-47z"/><path fill="#588C4B" d="M245 1367h36l6 4 3 7 1 11v10l-2 10-5 6-5 2h-26v-13l23-1 1-1v-22h-19l-7 1-1 10-1 41-3 1-8-1-2-2v-52l3-6z"/><path fill="#055794" d="m324 515 4 2 5 15 1 2 22 3 2 3-5 5-5 4-5 7v7l2 13-5 1-13-7h-6l-14 7h-4l1-9 2-10-4-6-10-11 1-4 19-2 4-7 6-11z"/><path fill="#FDD84B" d="m1186 731 4 1 6 4 3 6 1 6 24 2 1 2-15 15v7l1 11-4 4-5-1-8-5-7 1-9 5-5 1-3-2 1-11v-10l-9-8-4-7 5-2 12-2 7-2 3-14z"/><path fill="#568B49" d="m317 648 4 1 4 9 3 6 7 3 15 3 1 4-11 10-2 6 2 20-6-1-14-8-5 1-12 7-4-1v-8l1-12-5-8-8-7 1-3 22-5 5-15z"/><path fill="#5A8D4D" d="M1356 1366h14l19 1 4 2 3 5 2 13v12l-3 12-5 5-7 1h-28l-5-2-4-5-1-4v-11l3-7 7-4h23l4 2v8l-1 1-25 1 1 8 7 1h16l4-1 1-4v-18l-1-1-29-2-1-12z"/><path fill="#568B49" d="M885 1367h36v14l-31-1 1 3 25 1 5 2 5 7 1 3v7l-4 9-5 4-3 1h-37l-2-2v-8l1-3h31l4-1v-7l-28-2-5-3-2-6v-10l6-7z"/><path fill="#598C4C" d="M825 1367h39l4 6 2 8v7l-3 9-4 2-14 1h-12l-4-1v-10l18-1 6-1 2-7h-28l-2 5v15l1 3 3 1 22 1 1 1v8l-3 3h-24l-7-3-4-6-2-8v-13l3-13 4-6z"/><path fill="#4A8FAE" d="M938 412h1l1 7v33l-3 28-5 28-4 15-1-4 6-33 4-39v-2l-4 5-1 5-8 15-3 7-7 14-4 6-6 10-1 3h-2l-2 6-6 8-3 6h-2l-2 5-3 5-3 3-10 14-10 13-1 3-4 4-9 14-5 7-6 11-7 14-5 14-3 8-6 21-4 23-1 21 1 3 4-5 5-17 7-18 4-8 3-8 14-28 8-11 6-8 6-9h2v-2h2l2-4 7-7 2 1-7 8-10 12-7 11-9 14-15 29-6 14-7 20-6 20-5 19-3 1-2-5-1-17 3-32 3-18 6-21 8-21 9-19 14-21 27-36 16-24 14-22 14-26 8-19 10-40z"/><path fill="#578B4A" d="M106 1367h30l7 4 3 8 1 16-2 13-6 7-10 2h-14l-16-2-4-4-3-7-1-8 2-18 3-9zm-1 12-1 7v17l3 2h21l5-2 1-5v-15l-2-3-5-1z"/><path fill="#5D8F51" d="M1121 1367h37l1 1v12l-32 1v2l27 1 6 2 4 8v13l-3 5-4 4-3 1h-37l-1-1v-11l1-1h34v-8l-24-1-7-2-3-3-1-3v-11z"/><path fill="#3485AB" d="m1245 638 5 3 3 6 1 7 22 3 1 3-7 8-5 6v20l-5 1-9-6-9-1-8 5-5 1-2-2 1-9 2-6-4-6-9-8 1-5 3-2 15-1 3-7 3-8z"/><path fill="#568B49" d="M1536 1367h37l1 2v11h-30v3l26 1 5 2 4 9v12l-4 6-4 3-4 1h-35l-1-1v-12h29l6-1v-6l-2-1-27-2-5-5-1-4v-10z"/><path fill="#438CAE" d="M1230 338h2l-1 8-6 15-12 22-12 17-10 11-7 8-11 11-22 18-15 10-17 10-27 13-3-1 5-3 7-3 23-12 4-3h2v-2l11-6 5-4h3v-2l11-8 8-6 5-5 10-11 5-6 4-5h2l2-4 6-8 6-9 5-10 3-7-5 1v3l-4 4-7 10-2 1-2 2-3 2-2 4-3 1-2 5h-3l-6 7h-3l-2 4-14 12-9 6-10 7-22 12-19 7-16 4-26 8-20 8-12 5-14 8-9 4-10 6-19 11-12 8-14 10-1 2-7 3-3 3-8 5-3-1 7-7 15-11 18-11 28-17 33-17 20-9 33-11 26-7 16-7 15-8 17-12 13-10 13-12 8-7 9-9 9-11 10-13 10-15z"/><path fill="#5A8D4E" d="M1481 1367h34l5 3 3 4 1 3v12l-3 7-3 3-6 1h-15l-8-1-2-2v-7l1-1h17l6-2 1-6-7-2h-16l-6 1-1 12 2 10 3 2 22 1v11l-2 1h-21l-9-3-5-6-1-3v-26l3-8z"/><path fill="#568B49" d="M368 1367h34l1 1 1 11-1 1-31 1v3h27l5 2 5 9v9l-4 9-4 3-4 1h-37l-1-1 1-12 35 1v-10h-11l-17-1-5-2-1-3v-16l5-5z"/><path fill="#5A8D4D" d="M311 1367h30l7 3 4 5 1 3v10l-3 8-4 3h-30l-1-1v-7l1-2 25-1v-6l-1-2-6-1h-15l-6 1-2 8v10l2 5 4 1 21 1v11l-1 1h-25l-7-3-5-10v-26l3-7z"/><path fill="#498FAE" d="m441 267 5 5 8 10 12 13 9 10 16 15 19 14 13 8 16 9 21 11 21 8 24 7 36 9 17 6 25 12 23 13 19 12 19 13 21 16 11 8 3 4-5-1-5-4v-2l-5-2-9-7-8-6-11-7-7-5-9-5-12-8-4-2v-2l-6-2-19-11-13-5v-2l-5-1-7-3-20-7-7-2-8-1-8-3-13-3-33-11-8-3v-2l-6-1-5-3-12-6v-2l-6-1-2-2-7-3-5-3-2-1v-2l-4-1-2-1v-2l-6-2-13-12-8-5 1 5 1 4 3 1 9 12 17 17 2 3 5 3 2 4 4 1 10 8 10 7 18 10 5 3v2l4 1 1 3-2 2-1-3-18-11-15-9-14-11-14-12-17-17-9-11-10-12-12-16-11-18-7-13z"/><path fill="#5B8E4F" d="M671 1367h12l8 3 3 4 1 3v11l-4 9-5 3h-24l-2-1v-9l1-1 22-1v-8l-5-1h-24v19l2 5 3 1 21 1 1 2-1 9-1 1h-25l-7-4-4-7-1-9v-12l2-10 4-5 4-2z"/><path fill="#558A48" d="m1258 366 5 5 5 10 7 3 12 3 2 3-5 5-5 3-2 4v11l1 10h-5l-11-7-4-1-12 7h-5l-1-7 2-11-3-6-8-7-1-5 17-2 4-1 3-10 3-6z"/><path fill="#568B4A" d="m1169 247 4 1 6 12 3 3 16 2 2 2-1 4-7 6-3 3v12l1 8-1 3-6-2-9-5-5-1-8 4-3 2h-5l-1-1 1-9 1-2v-6l-1-4h-2l-5-5-3-4 1-4 1-1 15-2 8-15z"/><path fill="#5B8D4E" d="m1221 1366 6 1v44l-2 5-1 1h-36l-6-2-7-8-2-5-2-20v-15h13l1 2 1 33 28 1v-36z"/><path fill="#538946" d="M514 1366h11l1 1 2 35 22 1 5 1v-37h13v43l-2 6-1 1h-30l-10-2-6-4-5-8-1-5v-31z"/><path fill="#578B4A" d="M1052 1367h11l3 3v33l27 1v-36l1-1h12l1 33-1 16-1 1h-30l-12-2-7-6-4-8-1-4v-24z"/><path fill="#035694" d="M1116 650h7l1 2h-3l-1 3-17 6-11 4-8 6-2 3h-3v5l6 3 21 5 16 4 21 6 7 3 9 3 6 3-1 3-12-2-22-6-31-7-26-4-23-1-5-3 2-5 12-10 15-9 13-5 7-2 5-2z"/><path fill="#5B8E4E" d="M1407 1367h41l6 3 5 6 2 9 1 31-1 1-11-1-1-2-1-32-6-1-22-1v36l-1 1h-9l-3-1z"/><path fill="#558A49" d="m783 254 4 1 4 10 1 3 11 2 10 2 1 2-5 5-6 7-2 9 2 8v4l-7-1-12-5-5 1-10 5-3-1v-7l1-5v-7l-9-9-2-3v-3l2-1 13-1 3-1 7-13z"/><path fill="#598D4D" d="M579 1367h37l6 2 6 4 4 5 1 5 1 33-1 1h-11l-1-1-1-28-1-6-4-1-24-2v37l-1 1h-11z"/><path fill="#548947" d="m423 656 5 1 7 13 7 2 10 1 3 2-2 4-7 6-3 5v18l-6-1-9-5-7 1-7 4h-5l-1-3 2-9-1-7-11-10v-3l16-3 4-4 4-11z"/><path fill="#5D8F51" d="m505 1350 3 1v13h-47l-1 53-1 1h-7l-4-1v-65l1-1z"/><path fill="#3D89AE" d="M551 401h13v1l-19 3-22 1-25 3-15 1 9 2 21 1 3 1 69 2 41 4 25 5 23 10 21 11 17 11 3 3v2l5 1 14 10 10 9 2 4-4-2-9-8-17-12-15-10-17-10-16-8-14-6-13-4-18-3-37-4-50-2-109-1-27-2v-1l26-3 81-6 24-2z"/><path fill="#5A97AF" d="m563 486 4 1 11 44 12 30 11 23 12 19v1h-9l-43-4-21-1h-79l-41 4-36 6-32 8-30 10-22 9-7 2 2-3 13-6 17-6 9-3 11-4 34-8 11-3 26-4 23-3 34-2h60l25 1 21 2 10 1h13l2-2-11-22-12-29-10-29-3-14-6 1-1 12v23l3 20 2 5 1 9 2 5 1 8-2 2-7-25-3-20-1-21 2-24 2-11z"/><path fill="#548947" d="m615 292 4 2 6 11 2 2h10l3 2-1 6-5 5h-2l1 18-1 1-7-1-6-3h-6l-7 4h-5v-16l-8-8-1-4 5-3 5-1h7l3-9z"/><path fill="#B7C5B7" d="M1073 523h4l3 13 13 3 7 2-1 3-7 6-3 5 1 10 1 7-6-1-10-6-6 1-8 5-4-1 2-9v-6l-7-8-3-3 1-4 15-2 5-12z"/><path fill="#5093AF" d="M1124 646h17l21 3 13 3 1 2-2 1-38 1-17 2-17 5-14 7-5 3 2-4 9-6 24-8 5-4h-7l-20 4-3 2-12 3-16 8-16 12-3 4v2l4 2 23 1 31 5 26 6 9 3v2l-10-2-34-7-22-3-35-3-2-1 2-5 7-7 17-12 16-8 16-6 19-4z"/><path fill="#518844" d="M1236 1346h13l1 1 1 56 7 3 2 4v6h-12l-7-3-4-5-1-7z"/><path fill="#538946" d="m617 217 5 1 2 4 1 6 4 1h9l2 5-3 5-4 2v19l-7-2-3-3-6-1-9 5h-5l1-7 1-8-8-9-1-3 2-3h14l2-8z"/><path fill="#4E91AE" d="m361 503 4 2 10 10 12 10 17 11 17 10 22 10 34 12 38 10 49 10 4 2h-10l-20-3-11-2-5-2-17-3-14-4-24-7-9-3-19-8-13-5v-2l-6-1-9-4-2-1v-2l-5-1-5-3-11-7-12-8 2 5 3 5 2 1v2h2l5 5 12 10 6 4 8 6 11 6 10 6 1 3-3-1-28-16-14-11-19-19-9-14-5-11z"/><path fill="#558A47" d="m932 230 5 1 4 10 6 1h6l3 2v6l-7 5-1 3 1 13-4 1-11-5-5 1-6 4-4-2 1-7v-8l-5-4-2-4 1-4 9-1h4l3-10z"/><path fill="#578B4A" d="M777 1367h34l1 3-1 10h-30l-1 37h-11l-2-1v-31l2-11z"/><path fill="#B5C3B5" d="m991 392 5 1 1 1 1 11h14l3 2-1 4-7 5-1 6 1 11h-6l-8-4-6 2-4 2h-5l-1-2 2-6v-6l-8-10v-3l14-2 4-9z"/><path fill="#B7C5B7" d="m1022 307 4 1 2 6v4l15 2 3 1-1 3-7 5-2 3 1 15-7-1-4-3h-7l-6 3-5-1 2-6v-7l-4-5-3-2v-4l2-1 11-1 3-10z"/><path fill="#B8C6B8" d="m689 490 4 2 1 3v9l11 1 6 2-2 4-4 4-3 2 3 15-5 1-8-6-3-1-7 6-5 1-1-3 3-7-1-5-7-8-3-5 14 1 6-15zm3 20 1 2zm-1 2-1 3h2z"/><path fill="#4A8FAD" d="M836 318h2l-2 5-8 17-7 23-5 20-4 27-3 29-1 24v46l2 37 2 35-3-1-8-20-12-23-11-16-9-10-7-8-16-16 3-1 2 4 4 2 2 4 4 2 13 13 16 20 2 7 9 16v2l3 1v3l4-1-2-27-1-52v-26l4-50 6-31 5-19 5-15 6-13 3-5z"/><path fill="#B7C4B7" d="m1096 360 4 1 1 9 13 1 3 3-1 4-7 4v15l-6-2-3-2h-7l-3 2h-7l1-5 1-7-7-6v-5l11-2z"/><path fill="#B8C5B8" d="m693 563 5 1 2 8 15 4v3l-8 6 2 10v4l-7-1-5-3h-6l-6 4h-3l1-7v-8l-7-6v-3h13l3-11z"/><path fill="#5B98B0" d="m856 288 4 1-4 6-12 15-5 8-1-4 1-2h2l2-6 2-7-10 5-9 7-10 10-6 9-8 14-6 15-4 11-5 22-3 21v53l-2 5-3-1h2l-1-15v-30l4-33 5-23 6-18 10-20 8-11 10-11 14-11 14-8z"/><path fill="#3E8AAD" d="M938 412h1l1 7v33l-3 28-5 28-4 15-1-4 6-33 4-39v-2l-4 5-1 5-8 15-3 7-7 14-4 6-3 4h-2l2-5 13-25 6-15 10-40z"/><path fill="#488FAE" d="M606 379h8l30 8 19 7 22 11 21 12 19 12 19 13 21 16 11 8 3 4-5-1-5-4v-2l-5-2-9-7-8-6-11-7-7-5-9-5-12-8-4-2v-2l-6-2-19-11-13-5v-2l-5-1-7-3-20-7-7-2-8-1-8-3-5-1z"/><path fill="#B8C5B8" d="m872 457 4 1 2 7v3h8l4 1-1 4-5 3h-2l3 13-2 1-8-3-6 1-4 2-4-1 2-4v-6l-5-4-2-5 3-2 10 1v-9zm0 20 1 2z"/><path fill="#4D91AF" d="m427 578 2 1-7 3-30 6-21 6-25 8-12 4-16 7-8 6-5 3-16 11-2 4v3l4-1-5 4-9 5h-2l1-5 7-9 7-7 18-12 21-11 21-8 30-9 23-5z"/><path fill="#4F8641" d="M465 1377h38v13l-1 1-37-1-1-1v-11z"/><path fill="#3886AC" d="M1138 647h13l21 4 4 2-2 2-38 1-17 2-17 5-14 7-5 3 2-4 9-6 24-8 5-4h-7l-17 3-3-1 7-3 15-2z"/><path fill="#4D91AE" d="M904 501h2l-1 4-2 5h-2l-2 6-6 8-3 6h-2l-2 5-3 5-3 3-10 14-10 13-1 3-4 4-9 14-5 7-6 11-7 14-5 14-3 8-3 9h-2v-7l9-24 9-19 14-21 27-36 16-24z"/><path fill="#498FAF" d="m746 486 4 1 1 3 4 2 2 4 4 2 13 13 16 20 2 7 9 16v2l3 1v3l4-1-2-27v-10l1-13h1l2 37 2 35-3-1-8-20-12-23-11-16-9-10-7-8-16-16z"/><path fill="#5A98B1" d="m563 486 4 1 3 12 3 15-3-1-2-9-6 1-1 12v23l3 20 2 5 1 9 2 5 1 8-2 2-7-25-3-20-1-21 2-24 2-11z"/><path fill="#528845" d="m1245 638 5 3 3 6 1 7 22 3 1 3-3 4-4-1v-2l-13-2-5-5-2-5-6-1-2 5-5 6-11 3 2 6 3 4-1 4-8-9-5-4 1-5 3-2 15-1 3-7 3-8z"/><path fill="#4D91AE" d="m880 588 2 1-7 8-10 12-7 11-9 14-15 29-6 14-7 20-4 12-2-1 1-8 4-11 7-19 3-5 3-8 14-28 8-11 6-8 6-9h2v-2h2l2-4z"/><path fill="#488FB0" d="m324 515 4 2 5 15 1 2 22 3 2 3-5 5-4 2v-6l-14-3-4-5-3-5-3-3-4 2-1 2h-2l-2 5-1 3-5 2-8 2-4-1 3 7 6 6 1 4-2 1-4-6-10-11 1-4 19-2 4-7 6-11z"/><path fill="#5394AF" d="m1015 480 2 1-4 4-14 7-13 8-14 8-12 8-14 10-1 2-7 3-3 3-8 5-3-1 7-7 15-11 18-11 28-17z"/><path fill="#418BAD" d="M997 512h5l-2 2-26 11-23 12-16 10-17 11-14 11-14 12-1-2 14-14 7-5h3l2-4 15-10 4-1v-2h3v-3l14-7h2v-2l12-5 9-4 10-5z"/><path fill="#4E91AE" d="M454 597h17v1l-51 5-36 6-32 8-30 10-22 9-7 2 2-3 13-6 17-6 9-3 11-4 34-8 11-3 26-4 23-3z"/><path fill="#5A97AD" d="M938 412h1l1 7v33l-3 28-5 28-4 15-1-4 6-33 4-39 1-1v-16l-1-1-5 14-2 5-1-3 7-29z"/><path fill="#5B99B2" d="m856 288 4 1-4 6-12 15-5 8-1-4 1-2h2l2-6 2-7-10 5-9 7-10 10-5 3 2-4 10-11 14-11 14-8z"/><path fill="#BFCBBF" d="m1186 721 5 1 24 10 1-1v-2l-4-1-5-4v-2l5 2 14 8 16 12v2l-7-1-27-13-22-10z"/><path fill="#619BB1" d="m662 430 12 5 21 11 17 11 3 3v2l5 1 14 10 10 9 2 4-4-2-9-8-17-12-15-10-17-10-16-8-9-4z"/><path fill="#679EB1" d="m479 325 5 1 9 12 17 17 2 3 5 3 2 4 4 1 10 8 10 7 18 10 5 3v2l4 1 1 3-2 2-1-3-18-11-15-9-14-11-14-12-17-17-9-11z"/><path fill="#5F9054" d="M646 1345h9l10 5 7 6v3h-12l-9-3-5-5z"/><path fill="#5796AF" d="M536 416h49l41 4 25 5 11 5v1l-8-1-13-4-18-3-37-4-50-2z"/><path fill="#4C90AE" d="M904 501h2l-1 4-2 5h-2l-2 6-6 8-3 6h-2l-2 5-3 5-3 3-10 14-10 13-1 3-4 4-4 6-5 3 2-4 10-14 14-18 22-33z"/><path fill="#4A8FAE" d="M551 401h13v1l-19 3-22 1-25 3h-21l1-2 16-2 37-3z"/><path fill="#BBC8BB" d="M1023 714h8l7 2-1 5-2 2-2-5h-9l-9 3-12 9-11 14-9 13-10 15-6 8v-3l14-21 13-19 9-10 9-8 8-4z"/><path fill="#609AAF" d="m1082 454 3 1-3 3-26 8-20 8-12 5-5 3-3-1 3-3 23-11 36-12z"/><path fill="#73A4B4" d="m746 486 4 1 1 3 4 2 2 4 4 2 13 13 16 20 2 7 10 18-1 4-12-23-11-16-9-10-7-8-16-16z"/><path fill="#CBD4CB" d="M1236 1346h13l1 1v55h-1l-1-54-10 1v59h-1l-1-7z"/><path fill="#438CAD" d="M1162 435h2l-2 4-11 9-15 10-17 10-27 13-3-1 5-3 7-3 23-12 4-3h2v-2l11-6 5-4h3v-2l11-8z"/><path fill="#CAD4CA" d="M965 1349h7l5 3 12 21-1 2-13-20-4-2h-5l1 63 6 1v1h-7l-1-1-1-14v-52z"/><path fill="#438CAD" d="m427 578 2 1-7 3-30 6-21 6-10 3-3-1 6-3 6-1v-2l23-6z"/><path fill="#5393AE" d="M1210 384v3l-10 14-9 10-7 8-11 11-8 7v-3l5-6 6-5 9-11 3-3 4-5h2l2-4 6-8z"/><path fill="#87AEB5" d="M1124 646h17l-3 2-30 2-11 3-4 4-12 3-14 7-2-1 4-5 16-7 17-5 11-2z"/><path fill="#C0CCC0" d="M426 410h12l-2 1-1 2h-3l1 1 66 1v1h-72l-27-2v-1z"/><path fill="#4D91AE" d="M1139 432v3l-22 12-19 7-13 3-3-1 4-3 18-5 16-7 13-7z"/><path fill="#B8C5B8" d="M712 641h1l1 26 2 25v29l-4 8-9 5-7 4-2-1 14-9 4-5 2-15-2-36z"/><path fill="#B9C6B9" d="M1266 1367h61l5 3 2 4-5-4-9-1h-50l-2 1v47l-2-1z"/><path fill="#408AAD" d="m814 321 1 2-7 10-8 16-5 14-3 7-2 8-3 1 4-16 5-14 11-21 5-5z"/><path fill="#5896AE" d="M381 535h2v2h2l5 5 12 10 6 4 8 6 11 6 10 6 1 3-3-1-28-16-14-11-12-12z"/><path fill="#5C98B0" d="m814 650 2 4-1 8-5 27-1 12-3 1v-11l3-21z"/><path fill="#5A97AF" d="m837 653 1 2-6 13-6 15-7 20-2 6-2-1 1-8 4-11 7-19 3-5 3-8z"/><path fill="#ECEFEC" d="M245 1367h36l6 4v3l-3-3-8-2h-21l-10 2-5 4-2 10-1 45h-1v-52l3-6z"/><path fill="#B2C2B6" d="m441 267 5 5 8 10 12 13v3l-4-3h-6l-8-13-7-13z"/><path fill="#DBE2DB" d="M555 1367h13l-1 3-1-1h-8l-1 4v30l-2 3h-17l-10-2v-1h22l5 1z"/><path fill="#679DB0" d="M559 540h2l3 20 2 5 1 9 2 5 1 8-2 2-7-25-2-11z"/><path fill="#B6C3B6" d="M845 702h1v10l-6 14-7 11-14 34-4 11-1-3 8-22 9-21 10-18 3-9z"/><path fill="#B6C4B6" d="m961 709 4 1v7h-2l-1-3-7 1-8 5-7 10-4 7-3 10-1-4 4-12 6-10 9-8z"/><path fill="#C6D1C6" d="M938 412h1l1 7v33h-1l-1-22-1-1-5 14-2 5-1-3 7-29z"/><path fill="#649CB0" d="M836 318h2l-2 5-8 17-7 23-2 5-2 1 1-9 7-21 6-13 3-5z"/><path fill="#CBD5CB" d="M1094 1367h12l-1 3h-9l-1 34-1 1h-24l-3-2 26 1v-36z"/><path fill="#5294B0" d="M315 531h2l-2 6-5 2-8 2-4-1 3 7 6 6 1 4-2 1-4-6-10-11 1-4 19-2z"/><path fill="#4A8FAE" d="m1015 480 2 1-4 4-14 7-13 8-9 5-2-1v-2l21-12z"/><path fill="#5092AE" d="m1087 692 13 1 18 4 21 6v2l-10-2-34-7-7-1z"/><path fill="#5193AE" d="m522 581 13 1 33 7v1h-10l-20-3-11-2-5-2z"/><path fill="#B2C1B1" d="M777 1367h34l1 3-1 10h-25v-1h24l-1-9h-32l-6 5-2 2 1-4z"/><path fill="#5193AE" d="M571 514h2l7 22 12 30h-3l-8-19-10-29z"/><path fill="#6DA0B1" d="m366 591 4 1-11 4-1 2-24 8-5 1v-3l21-8z"/><path fill="#649DB2" d="m332 533 7 2 17 2 2 3-5 5-4 2v-6l-14-3-3-3z"/><path fill="#B5C3B5" d="m1002 728 1 2-11 14-9 13-10 15-6 8v-3l14-21 13-19z"/><path fill="#5394AE" d="m489 573 10 1 25 6-2 2-14-1-9-3-8-2-2-1z"/><path fill="#4C90AE" d="m527 370 11 7 5 4 18 10 5 3v2l4 1 1 3-2 2-1-3-18-11-15-9-8-6z"/><path fill="#BAC7BA" d="M368 1367h34l1 1 1 11-1 1h-6v-1h5l-1-9-8-1-22 1-7 3-3 4 1-6z"/><path fill="#5193AE" d="m880 588 2 1-7 8-10 12-7 11h-3l2-5 5-6 3-5 2-3h2v-2h2l2-4z"/><path fill="#C2CEC2" d="M704 1345h7l5 2v24h-1v-23h-11v46h-1v-47z"/><path fill="#4B90AE" d="m398 604 4 1-12 3-27 6-17 5h-5l1-2 31-8 17-4z"/><path fill="#B5C3B5" d="M1088 807h5l-4 2-14 3-1 1-15 2-15 3h-7v-1l40-8z"/><path fill="#5E9AB3" d="M307 559h1v10h2v2l11-2-4 3-10 5h-4l1-9z"/><path fill="#BCC9BC" d="m830 1404 25 1 1 1v8l-3 3h-24v-1l22-1 2-2 1-6h-18l-6-2z"/><path fill="#C3CEC3" d="M885 1367h36v14h-5l4-2-1-9-3-1h-30l-5 5-2 4v10l-2-3v-10l6-7z"/><path fill="#478EAE" d="M997 512h5l-2 2-26 11-13 6 2-4 11-5 10-5z"/><path fill="#B8C5B8" d="M1221 656h15l-1 2-13 2 1 5 5 5v3l-11-10 1-5z"/><path fill="#B6C4B6" d="m1270 665 2 1-7 8v20l-5 1-12-8 6 1 7 2 1-2 1-15 5-7z"/><path fill="#639CB1" d="m713 461 7 2 14 10 10 9 2 4-4-2-9-8-17-12z"/><path fill="#B5C3B5" d="M740 605h8l1 1v5h-2l-1-5-9 3-8 6-8 8-5 10-1-3 5-10 8-8z"/><path fill="#BDC9BD" d="M465 1377h38v13l-2-4-1-7h-33v11l-3-1v-11z"/><path fill="#488EAE" d="M915 556h2v3l-13 10-14 12-1-2 14-14 7-5h3z"/><path fill="#4F92AE" d="m427 578 2 1-7 3-20 4-9-1 4-2z"/><path fill="#5494AF" d="m342 563 2 4 1 9-5 1-13-7-5-1v-1l9 1 7 2 2-1z"/><path fill="#B5C3B5" d="M1081 740h13l9 4 2 1-1 4-5 3 1-7-8-3-12 1-12 4-3-1 12-5z"/><path fill="#B8C5B8" d="M877 1404h12v1l-11 1 1 10 35-1 5-1-1 2-3 1h-37l-2-2v-8z"/><path fill="#5293AE" d="m788 378 1 4-6 36-2 1 2-19 3-19z"/><path fill="#B5C3B5" d="M715 709h1v12l-4 8-9 5-7 4-2-1 14-9 4-5 2-13z"/><path fill="#5293AE" d="M824 681h1l-1 8-6 17-2 3-1-5 4-13z"/><path fill="#468EAE" d="m823 630 1 3-7 21h-2v-7l5-14z"/><path fill="#498FAE" d="m1115 656 4 1-4 2-18 6-14 8 2-4 9-6z"/><path fill="#428BAD" d="m918 478 1 3-5 10-4 6-3 4h-2l2-5 9-17z"/><path fill="#BECABE" d="M1171 1367h13l1 2v28h-1l-1-26-1-2-5-1v2l-4 1-1 11h-1z"/><path fill="#BDC9BD" d="M245 1367h36l6 4v3l-3-3-8-2h-21l-12 2z"/><path fill="#BECABE" d="M514 1366h11l1 5-1-2-10 1-1 28h-1v-31z"/><path fill="#5695AF" d="M866 558h2l-2 4-6 8-1 3-4 4-4 6-5 3 2-4 10-14z"/><path fill="#73A4B2" d="m1157 417 2 1-7 8-10 7-7 1 4-4 13-9z"/><path fill="#B8C5B8" d="m897 373 14 1 11 2 2 2-10 8-4 2 6-7v-3l-13-3-6-1z"/><path fill="#BBC8BB" d="m1254 654 22 3 1 3-4 4-4-4-13-3z"/><path fill="#CCD5CC" d="m1158 649 10 1 8 3-2 2h-16l4-2-3-1z"/><path fill="#B7C4B7" d="m451 462 15 1 11 2 1 5-1 2h-2v2l-6 3 2-4 2-3-1-4-21-3z"/><path fill="#C6D0C6" d="M1536 1367h37v2h-33l-4 2-3 5-1 9h-1v-10z"/><path fill="#B9C6B9" d="M871 371v3l-6 2-11 1-3 2-2 3-4-3v-3l13-2 12-2z"/><path fill="#B5C3B5" d="M360 1404h6l-4 3v8l35 1v1h-37l-1-1z"/><path fill="#B7C4B7" d="M528 1403h22l6 1-1 2h-17l-10-2z"/><path fill="#B8C5B8" d="m1245 638 5 3 2 3-1 3-2-4h-5l-2 5-3 6-1-4 4-10z"/><path fill="#5193AE" d="m818 368 1 3-4 18-2 7-2 3v-7l5-22z"/><path fill="#BCC9BC" d="M970 1350h5l4 5 10 18-1 2-13-20-4-2h-5l1-2z"/><path fill="#5494AF" d="M904 501h2l-1 4-2 5h-2l-2 6-6 8-3 1 2-5z"/><path fill="#5796AF" d="m830 303 2 1-11 12-9 8v-3l11-12z"/><path fill="#C1CCC1" d="M1407 1367h7l-4 2-1 1v46h-2z"/><path fill="#B9C6B9" d="M825 1367h39l3 4-1 2-5-4h-35l-5 3 2-4z"/><path fill="#C4CFC4" d="M810 560h1l1 21-3-1-5-13 1-3 3 5h1z"/><path fill="#5896B0" d="M836 318h2l-2 5-8 17-2 3-1-4 6-13 3-5z"/><path fill="#5796AF" d="m934 490 1 3-5 23-2 7-1-4 4-23z"/><path fill="#DAE1DA" d="M1236 1346h10l2 2-10 1-1 33h-1z"/><path fill="#B7C5B7" d="M630 322h1l2 16-1 1-7-1-6-3-5-1v-1h6l4 2 6 1z"/><path fill="#B5C3B5" d="M598 229h13l-4 2h-5l1 10-5-5-2-4z"/><path fill="#5D98AF" d="m1115 697 10 2 14 4v2l-10-2-18-4z"/><path fill="#679EB1" d="M381 535h2v2h2l5 5 10 9 1 3-4-2-8-7-8-8z"/><path fill="#BCC9BC" d="m1194 528 4 1 3 7-1 3-2-3h-5l-3 2 1-5z"/><path fill="#BBC8BB" d="m515 195 18 1 10 2-2 4-3 2-2-5-21-3z"/><path fill="#ACBEAA" d="M1228 683h1v7l8-1 4-3h7v1l-7 2-10 5-4-2z"/><path fill="#BBC8BB" d="m432 432 4 1 3 9-6-3-3 1-2 2 1-6z"/><path fill="#FDFDFD" d="m1231 737 5 2 6 5v2l-7-1-8-4v-1h5z"/><path fill="#6DA0B0" d="M807 509h1l1 33h-2l-1-10v-10z"/><path fill="#65A0BA" d="M559 519h1v21l-2 4-1-21z"/><path fill="#4C90AE" d="m1032 500 4 1-29 10-5 1 2-3 9-3z"/><path fill="#FDFDFD" d="m441 267 5 5 8 10 3 4-4-1-1-2-4-1-7-13z"/><path fill="#4E8640" d="m1263 671 1 2-1 15-2 3-9-3 3-1h5l1-13z"/><path fill="#B7C5B7" d="M1171 552h9v1l-16 2-1 4 3 4-4-2-3-3v-4l2-1z"/><path fill="#4E92AF" d="M849 583v3l-7 11-6 4 2-5 7-10z"/><path fill="#BAC7BA" d="M1356 1366h14l-3 2-8 2-2 3-1 5 2 1h-3l-1-12z"/><path fill="#3485AD" d="M1108 649h10l-2 2-17 3-3-1 7-3z"/><path fill="#629BAF" d="m416 563 4 1 17 10 1 3-3-1-14-8-4-2z"/><path fill="#4D91AE" d="m1015 480 2 1-4 4-12 6-2-1 4-4z"/><path fill="#B5C3B5" d="m918 788 2 1-15 8-2 5-3-2 1-4 7-4z"/><path fill="#669DB0" d="m1082 454 3 1-3 3-9 3-8-1 3-2z"/><path fill="#B9C6B9" d="m882 350 4 2v3l-5 2-7 13-1-3 8-16z"/><path fill="#B6C4B6" d="M602 307h5l-4 2-5 1-1 8-5-5 2-4z"/><path fill="#5A97AF" d="m662 430 12 5 5 3v2l-6-2-14-6z"/><path fill="#86ACB2" d="M551 401h13v1l-12 2-21-1v-1z"/><path fill="#C4CFC4" d="M1230 338h2l-1 8-2 3v-3h-4l-3 3 2-5z"/><path fill="#B8C5B8" d="m1152 807 5 2 4 7 1 8-2 2-4-1 3-3-1-7z"/><path fill="#5293AE" d="m643 424 10 2 9 4v1l-8-1-13-4z"/><path fill="#4D91AE" d="m577 416 20 1 3 1v2l-23-2z"/><path fill="#478EAE" d="m814 321 1 2-7 10-4 4-1-2 7-11z"/><path fill="#BDC9BD" d="m805 726 3 3 3-1 1-2-2 10-3 1-2-5z"/><path fill="#B6C4B6" d="M614 635h7l-3 1 1 18h-1l-4-15zM946 258h2l1 13-4 1-4-2 4-2z"/><path fill="#BAC7BA" d="M337 1409h1v7l-1 1h-25v-1l23-1zM631 244l2 4v12l-7-2-1-2 5-2 1-5zM947 242h6l3 2v6l-4 3-2-1 3-7-4-1zM842 683h6l2 2-6 2-1 8-2-2v-9z"/><path fill="#5293AE" d="M878 541h2l-2 5-9 12h-2l2-4z"/><path fill="#4E92B0" d="M559 540h2l1 6v10l-2 3-1-6z"/><path fill="#74A4B1" d="m1033 471 3 1-6 3h-2v2l-9 5-3-1 3-3z"/><path fill="#5293AE" d="m527 370 11 7 6 5-1 2-12-8-4-3z"/><path fill="#B8C5B8" d="m493 165 4 1 3 6-1 2-3-4h-5l-2 6-1-3 3-6zM1041 763l2 1-14 13-4 3-2-1 7-7z"/><path fill="#BDCABD" d="M442 673h10l3 2-2 4-4 2 1-5-8-2z"/><path fill="#73A4B4" d="m713 461 7 2 8 6 1 3-4-2-12-8z"/><path fill="#BFCBBF" d="M861 408h1v9l5 1-1 2-7 2 1-10z"/><path fill="#B5C3B5" d="m615 292 4 2 2 6-7-1-2 1 2-7z"/><path fill="#B6C4B6" d="m795 270 16 1 3 3-3 3-2-4h-7l-7-2z"/><path fill="#408BAD" d="M308 629h3v2l-16 7-2-1 8-5z"/><path fill="#DEE4DE" d="m243 1368 2 1-5 6-2 10-2 1v-8l3-6z"/><path fill="#609BB3" d="M560 505h1v12l-3 3v-13z"/><path fill="#B8C6B8" d="M921 256h1v9l2 3 3 2-6 2-2-4z"/><path fill="#B6C4B6" d="M917 242h6v2l-5 1-1 5 1 2-3-1-2-4 1-4z"/><path fill="#D4DCD4" d="M877 1404h12v1l-11 1 1 11-3-2v-8z"/><path fill="#B5C3B5" d="m423 656 5 1 1 2-4 2-5 5 1-7z"/><path fill="#418BAD" d="M1162 435h2l-2 4-10 8v-3z"/><path fill="#B9C6B9" d="m471 668 3 1-5 3h-2l1 5 1 2-4-2-2-2 1-4z"/><path fill="#BFCBBF" d="m1170 294 7 1 7 4 4 1 1-3 1 3-1 3-6-2-9-5z"/><path fill="#B5C3B5" d="m510 717 14 12 2 4-4-2-12-12z"/><path fill="#5997AF" d="M808 689h1v12l-3 1v-11z"/><path fill="#B5C3B5" d="M535 640h15v1l-11 1v7l-3-3-2-5z"/><path fill="#C3CEC3" d="m361 503 4 2 5 5 1 2-6-2-1-3-3 1-1-3z"/><path fill="#4E91AE" d="M1062 460h7v2l-10 3-3-1 3-1v-2z"/><path fill="#B9C6B9" d="m906 414 2 3-1 5-6-1-3-3h7z"/><path fill="#619CB3" d="m479 325 5 1 6 8v2l-4-2-7-8z"/><path fill="#B7C4B7" d="M605 248h1l2 7 2 3-7 1 1-7z"/><path fill="#5F99AF" d="m829 669 1 4-4 10-2-4 4-9zM809 424h1l-1 15h-2v-13z"/><path fill="#B9C6B9" d="M1237 385h6l-3 2-6 1-1 4-3-3v-3z"/><path fill="#AFC2BB" d="m1045 677 2 1-7 8-1 3 4 1-7-1 2-5z"/><path fill="#609AAF" d="m403 582 4 1-1 2-10 1-3-2z"/><path fill="#4C90AE" d="m584 553 3 1 5 13-3-1-5-11z"/><path fill="#4A90B0" d="M1139 432v3l-9 5-2-1 5-5z"/><path fill="#B5C3B5" d="m1264 416 6 2 1 1h5l2-1v5h-5l-9-6z"/><path fill="#76A5B3" d="m594 375 7 1 8 2-3 2h-6l-3-3z"/><path fill="#C0CCC0" d="M360 1404h6l-4 3v8l1 2-4-1z"/><path fill="#CCD5CC" d="M1553 1384h17l5 2v3l-7-3-15-1z"/><path fill="#C0CCC0" d="M1378 1367h11l4 2 3 5-1 3-4-6-4-2-9-1z"/><path fill="#FAFBFA" d="M965 1349h7l2 2-7 1-2 7h-1v-8z"/><path fill="#518743" d="m1229 681 2 1v4l7 2-1 2h-8z"/><path fill="#5997AF" d="M825 621h3l-3 9-4 2 3-9z"/><path fill="#B7C4B7" d="m1176 573 2 2-1 8-3 7-1-4z"/><path fill="#BECABE" d="M406 505h1v11l5 1-4 3h-3v-9z"/><path fill="#6EA1B0" d="m746 486 4 1 1 3 4 2 3 4-1 2-11-11z"/><path fill="#5A97AF" d="m340 618 3 2-16 5 2-4z"/><path fill="#458DAE" d="M997 512h5l-2 2-13 5 1-3z"/><path fill="#BCC9BC" d="m398 1367 5 1 1 11-1 1h-6v-1h5l-1-9-3-1z"/><path fill="#BFCBBF" d="m1031 1349 8 1-8 4-4 4 2-6z"/><path fill="#B5C3B5" d="M338 700h1l1 10-6-1-1-2 4-2z"/><path fill="#4F92AE" d="M818 697h1l-1 9-2 3-1-5z"/><path fill="#BCC9BC" d="M401 674h5l-3 3v5l-5-4v-3z"/><path fill="#BAC7BA" d="M740 605h8l1 1v5h-2l-1-5-10 2z"/><path fill="#5896AF" d="M853 575h2l-2 5-5 5-2 1 2-4z"/><path fill="#BCC9BC" d="M1223 553h8l2 1-2 4-2 2-1-5-5-1z"/><path fill="#B5C3B5" d="M1241 411h1v8l6 1-2 2h-5l-1-7z"/><path fill="#C2CDC2" d="m1481 1367 4 1-8 4-3 4-2 3 1-6 5-5z"/><path fill="#B7C5B7" d="m1100 743 5 2-1 4-5 3z"/><path fill="#BAC7BA" d="M442 699h1v9l-6-1-2-2 6-2z"/><path fill="#4B90AE" d="m896 572 1 3-8 6 1-4zM935 478h1v9l-2 5h-1l1-13z"/><path fill="#B7C5B7" d="m317 648 4 1 2 5-3-2-4 1-2 2 1-5z"/><path fill="#3485AD" d="M565 574h2l2 5 1 8-2 2-2-11z"/><path fill="#428CAD" d="m1038 469 3 1-3 3-7 3-3-1 6-3h2v-2z"/><path fill="#B7C5B7" d="M758 271h10v1l-9 2v2l-3-1v-3z"/></svg>