<svg xmlns="http://www.w3.org/2000/svg" width="462" height="462" viewBox="0 0 1848 1848">
    <path fill="#338CC9"
        d="m519 1236 6 1 12 10 17 12 13 9 22 14 17 10 24 13 24 12 31 13 30 11 29 9 26 7 38 8 33 5 38 4 18 1h50l31-2 41-5 35-6 34-8 36-11 36-13 32-14 36-18 19-11 18-11 15-10 14-10 19-14 4-3 6 1 28 12 26 13 14 8 20 12 16 11 14 10 18 14 28 24 10 10 8 7 13 13 7 8 7 7 7 8 11 13 11 14 14 18 12 17 13 19 14 22 12 20 10 18 15 28 15 31 16 37 12 31 11 31 11 36 10 38 8 38 6 36v4H96l2-16 6-35 9-41 7-26 13-42 10-28 11-28 11-26 13-28 16-32 10-18 11-19 16-26 15-22 12-17 10-13 11-14 13-16 12-13 7-8 14-15 12-12 8-7 13-12 11-9 12-10 20-15 30-20 15-9 22-12 29-14zM895 256h54l32 3 32 5 32 7 38 12 32 13 29 14 22 12 19 12 12 8 19 14 16 13 10 9 8 7 15 14 5 6 14 14 11 14 10 12 13 18 10 15 12 20 15 28 13 29 10 27 10 33 7 32 5 31 3 36v46l-3 33-5 33-6 28-7 25-10 30-12 28-10 21-11 20-13 21-13 19-10 13-8 10-11 13-7 8-16 17-7 7-8 7-12 11-10 8-18 14-27 18-15 9-24 13-25 12-25 10-33 11-36 9-21 4-31 4-13 1h-66l-31-3-30-5-27-6-25-7-26-9-26-11-25-12-22-12-22-14-17-12-21-16-10-9-8-7-10-9-22-22-7-8-13-15-15-20-12-17-13-21-14-25-13-27-11-27-12-37-8-34-5-30-3-29-1-12v-42l3-36 5-34 6-28 8-29 10-29 13-30 13-26 8-14 15-24 10-14 15-20 9-10 9-11 10-10 7-8 16-15 10-9 11-9 18-14 20-14 21-13 29-16 26-12 26-10 27-9 32-8 26-5 30-4z" />
</svg>